<svg id="logo-match" xmlns="http://www.w3.org/2000/svg" width="156.624" height="24" viewBox="0 0 156.624 24">
  <g id="Group_16" data-name="Group 16" transform="translate(0 6.776)">
    <rect id="Rectangle_21" data-name="Rectangle 21" width="5.566" height="5.566"/>
    <rect id="Rectangle_22" data-name="Rectangle 22" width="5.566" height="5.566" transform="translate(11.131)"/>
    <rect id="Rectangle_23" data-name="Rectangle 23" width="5.566" height="5.566" transform="translate(16.697 5.566)"/>
    <rect id="Rectangle_24" data-name="Rectangle 24" width="5.566" height="5.566" transform="translate(11.131 11.131)"/>
    <rect id="Rectangle_25" data-name="Rectangle 25" width="5.566" height="5.566" transform="translate(0 11.131)"/>
  </g>
  <g id="Group_19" data-name="Group 19" transform="translate(113.863 2.373)">
    <g id="Group_18" data-name="Group 18">
      <g id="Group_17" data-name="Group 17">
        <path id="Path_10" data-name="Path 10" d="M380.043,233.892v-5.506h4.941v5.506Z" transform="translate(-380.043 -212.792)"/>
        <path id="Path_11" data-name="Path 11" d="M419.738,211.163v10.286h-4.492v-9.824c0-2.539-.995-3.692-2.567-3.692-1.925,0-2.984,1.747-2.984,4.912v8.6H405.2V211.328c0-2.143-.9-3.4-2.567-3.4-1.957,0-2.984,1.78-2.984,4.912v8.6H395.16V204.7H399.4v1.912h.064a5.216,5.216,0,0,1,4.524-2.308,4.986,4.986,0,0,1,4.845,2.868,5.8,5.8,0,0,1,5.2-2.868C417.525,204.306,419.738,206.614,419.738,211.163Z" transform="translate(-387.854 -200.35)"/>
        <path id="Path_12" data-name="Path 12" d="M457.407,213.593v3.528a8.816,8.816,0,0,1-2.374.33c-3.754,0-5.391-1.549-5.391-5.439V203.9h-2.631v-3.428h2.631V196.12h4.492v4.352h3.112V203.9h-3.112v7.286c0,1.846.578,2.572,2.118,2.572A3.9,3.9,0,0,0,457.407,213.593Z" transform="translate(-414.646 -196.12)"/>
      </g>
    </g>
  </g>
  <g id="Group_23" data-name="Group 23" transform="translate(27.819)">
    <g id="Group_22" data-name="Group 22">
      <g id="Group_21" data-name="Group 21">
        <path id="Path_13" data-name="Path 13" d="M226.581,211.163v10.286h-4.492v-9.824c0-2.539-1-3.693-2.567-3.693-1.925,0-2.984,1.748-2.984,4.912v8.6h-4.492v-10.12c0-2.143-.9-3.4-2.567-3.4-1.957,0-2.984,1.78-2.984,4.912v8.6H202V204.7h4.236v1.912h.064a5.216,5.216,0,0,1,4.524-2.308,4.986,4.986,0,0,1,4.845,2.868,5.8,5.8,0,0,1,5.2-2.868C224.366,204.306,226.581,206.614,226.581,211.163Z" transform="translate(-202.002 -197.976)"/>
        <path id="Path_14" data-name="Path 14" d="M270.174,210.659v6.066a18.023,18.023,0,0,0,.449,4.582H266.58a9.806,9.806,0,0,1-.225-2.241h-.064A6.07,6.07,0,0,1,261,221.7c-3.466,0-5.551-2.176-5.551-5.077,0-2.736,1.6-4.583,6.321-5.341,1.219-.2,3.049-.4,4.075-.462v-.593c0-2.11-1.091-2.967-2.663-2.967a2.451,2.451,0,0,0-2.7,2.539H256.12c.16-3.2,2.407-5.769,7.059-5.769C267.8,204.033,270.174,206.275,270.174,210.659Zm-4.332,2.967c-.963.066-2.31.2-3.273.363-1.861.33-2.631.956-2.631,2.308,0,1.253.834,2.11,2.406,2.11a3.614,3.614,0,0,0,2.567-.956c.77-.791.93-1.681.93-3.2Z" transform="translate(-229.617 -197.835)"/>
        <path id="Path_15" data-name="Path 15" d="M296.979,213.593v3.528a8.822,8.822,0,0,1-2.374.33c-3.754,0-5.391-1.549-5.391-5.439V203.9h-2.632v-3.428h2.632V196.12h4.492v4.352h3.112V203.9h-3.112v7.286c0,1.846.578,2.572,2.117,2.572A3.909,3.909,0,0,0,296.979,213.593Z" transform="translate(-245.706 -193.747)"/>
        <path id="Path_16" data-name="Path 16" d="M323.744,210.791h-4.685c-.16-1.978-1.316-3.2-3.048-3.2-2.182,0-3.5,2.044-3.5,5.341s1.315,5.341,3.5,5.341c1.733,0,2.888-1.352,3.016-3.527h4.717a7.324,7.324,0,0,1-7.7,7.088c-4.974,0-8.214-3.495-8.214-8.9s3.24-8.9,8.214-8.9C320.439,204.033,323.391,206.868,323.744,210.791Z" transform="translate(-256.684 -197.835)"/>
        <path id="Path_17" data-name="Path 17" d="M348.568,199.781a5.5,5.5,0,0,1,4.492-2.242c3.658,0,6,2.308,6,6.857v10.286h-4.492v-9.824c0-2.539-1.091-3.693-2.856-3.693-1.861,0-3.209,1.484-3.209,4.55v8.967h-4.492V191.209H348.5v8.572Z" transform="translate(-275.38 -191.209)"/>
      </g>
    </g>
  </g>
</svg>
